<svg xmlns="http://www.w3.org/2000/svg" viewBox="0 0 32 32" fill="none">
  <defs>
    <linearGradient id="sparkle" x1="8" y1="6" x2="24" y2="26" gradientUnits="userSpaceOnUse">
      <stop stop-color="#c084fc"/>
      <stop offset="1" stop-color="#7c3aed"/>
    </linearGradient>
  </defs>
  <rect width="32" height="32" rx="8" fill="#09090c"/>
  <circle cx="16" cy="16" r="13.5" fill="#9d56f7" fill-opacity="0.18" stroke="#9d56f7" stroke-opacity="0.32" stroke-width="0.75"/>
  <g transform="translate(16 16) scale(0.58) translate(-12 -12)" stroke="url(#sparkle)" stroke-width="2.25" stroke-linecap="round" stroke-linejoin="round">
    <path d="M11.017 2.814a1 1 0 0 1 1.966 0l1.051 5.558a2 2 0 0 0 1.594 1.594l5.558 1.051a1 1 0 0 1 0 1.966l-5.558 1.051a2 2 0 0 0-1.594 1.594l-1.051 5.558a1 1 0 0 1-1.966 0l-1.051-5.558a2 2 0 0 0-1.594-1.594l-5.558-1.051a1 1 0 0 1 0-1.966l5.558-1.051a2 2 0 0 0 1.594-1.594z"/>
    <path d="M20 2v4"/>
    <path d="M22 4h-4"/>
    <circle cx="4" cy="20" r="2" fill="url(#sparkle)" stroke="none"/>
  </g>
</svg>
